<svg width="151" height="83" viewBox="0 0 151 83" fill="none" xmlns="http://www.w3.org/2000/svg">
<g clip-path="url(#clip0_661_23)">
<path d="M35.2534 66.6539C35.143 69.5859 32.8876 72.0266 29.8635 72.0266C29.1436 72.046 28.4272 71.9215 27.7565 71.6603C27.0858 71.3991 26.4744 71.0066 25.9583 70.5059C25.4423 70.0053 25.0322 69.4067 24.7521 68.7454C24.4721 68.0841 24.3278 67.3736 24.3278 66.6558C24.3278 65.9381 24.4721 65.2275 24.7521 64.5663C25.0322 63.905 25.4423 63.3064 25.9583 62.8057C26.4744 62.3051 27.0858 61.9126 27.7565 61.6514C28.4272 61.3902 29.1436 61.2657 29.8635 61.2851C32.8876 61.2851 35.143 63.7258 35.2534 66.6539C35.344 69.1771 39.2869 69.1889 39.1962 66.6539C39.007 61.6034 35.0759 57.3548 29.8635 57.3548C28.622 57.3294 27.3879 57.5511 26.2335 58.0071C25.0791 58.4631 24.0276 59.1442 23.1405 60.0104C22.2535 60.8766 21.5488 61.9105 21.0677 63.0516C20.5867 64.1927 20.3389 65.4181 20.3389 66.6558C20.3389 67.8936 20.5867 69.119 21.0677 70.2601C21.5488 71.4012 22.2535 72.4351 23.1405 73.3013C24.0276 74.1675 25.0791 74.8486 26.2335 75.3046C27.3879 75.7606 28.622 75.9823 29.8635 75.9569C35.0759 75.9372 39.007 71.724 39.1962 66.6539C39.2869 64.1267 35.344 64.1306 35.2534 66.6539Z" fill="#168D63"/>
<path d="M42.3502 66.6539C42.2516 71.834 39.0815 76.6172 34.1096 78.3701C31.6113 79.2726 28.8895 79.3578 26.3392 78.6135C23.789 77.8693 21.5431 76.3341 19.9276 74.2311C18.3121 72.128 17.411 69.5664 17.3552 66.9182C17.2993 64.27 18.0917 61.673 19.6171 59.5041C21.1426 57.3352 23.3218 55.7074 25.8384 54.857C28.355 54.0066 31.078 53.9778 33.6122 54.7748C36.1463 55.5718 38.3597 57.1532 39.9309 59.2893C41.5022 61.4254 42.3496 64.0051 42.3502 66.6539C42.3975 69.1811 46.3404 69.189 46.2931 66.6539C46.2938 63.275 45.2464 59.9786 43.2943 57.2162C41.3422 54.4539 38.5809 52.3609 35.3889 51.2239C32.1968 50.087 28.7302 49.9618 25.4639 50.8655C22.1977 51.7692 19.2918 53.6575 17.1442 56.2718C14.9967 58.886 13.7127 62.0983 13.4681 65.4684C13.2236 68.8385 14.0305 72.2015 15.7782 75.0966C17.526 77.9917 20.1291 80.2773 23.2308 81.6401C26.3326 83.003 29.7812 83.3764 33.1042 82.7092C40.7849 81.2471 46.1472 74.3101 46.2931 66.6539C46.3404 64.1267 42.3975 64.1267 42.3502 66.6539Z" fill="#168D63"/>
<path d="M118.668 66.6539C118.558 69.5859 116.303 72.0266 113.278 72.0266C112.559 72.046 111.842 71.9215 111.172 71.6603C110.501 71.3991 109.889 71.0066 109.373 70.5059C108.857 70.0053 108.447 69.4067 108.167 68.7454C107.887 68.0841 107.743 67.3736 107.743 66.6558C107.743 65.9381 107.887 65.2275 108.167 64.5663C108.447 63.905 108.857 63.3064 109.373 62.8057C109.889 62.3051 110.501 61.9126 111.172 61.6514C111.842 61.3902 112.559 61.2657 113.278 61.2851C116.303 61.2851 118.558 63.7258 118.668 66.6539C118.759 69.1771 122.702 69.1889 122.611 66.6539C122.426 61.6034 118.491 57.3548 113.278 57.3548C112.037 57.3294 110.803 57.5511 109.649 58.0071C108.494 58.4631 107.443 59.1442 106.556 60.0104C105.669 60.8766 104.964 61.9105 104.483 63.0516C104.002 64.1927 103.754 65.4181 103.754 66.6558C103.754 67.8936 104.002 69.119 104.483 70.2601C104.964 71.4012 105.669 72.4351 106.556 73.3013C107.443 74.1675 108.494 74.8486 109.649 75.3046C110.803 75.7606 112.037 75.9823 113.278 75.9569C118.491 75.9372 122.422 71.724 122.611 66.6539C122.702 64.1267 118.759 64.1306 118.668 66.6539Z" fill="#168D63"/>
<path d="M125.766 66.6539C125.667 71.834 122.497 76.6172 117.525 78.3701C115.027 79.2725 112.305 79.3578 109.755 78.6135C107.204 77.8692 104.959 76.3341 103.343 74.2311C101.728 72.128 100.826 69.5664 100.771 66.9182C100.715 64.27 101.507 61.6729 103.033 59.5041C104.558 57.3352 106.737 55.7074 109.254 54.857C111.77 54.0066 114.493 53.9778 117.028 54.7748C119.562 55.5718 121.775 57.1532 123.346 59.2893C124.918 61.4254 125.765 64.0051 125.766 66.6539C125.813 69.1811 129.756 69.1889 129.709 66.6539C129.709 63.2761 128.661 59.9809 126.709 57.2197C124.757 54.4586 121.997 52.3666 118.805 51.2303C115.614 50.0941 112.149 49.9691 108.884 50.8727C105.619 51.7762 102.714 53.6641 100.567 56.2775C98.4198 58.8909 97.1361 62.1021 96.8915 65.4711C96.6469 68.8401 97.4533 72.202 99.2002 75.0964C100.947 77.9908 103.549 80.2759 106.65 81.6387C109.75 83.0016 113.198 83.3755 116.52 82.7091C124.2 81.2471 129.563 74.3101 129.709 66.6539C129.756 64.1267 125.813 64.1267 125.766 66.6539Z" fill="#168D63"/>
<path d="M44.3219 68.619H98.8202C101.359 68.619 101.363 64.6887 98.8202 64.6887H44.3219C41.7827 64.6887 41.7787 68.619 44.3219 68.619Z" fill="#168D63"/>
<path d="M127.737 68.619H134.712C136.979 68.619 139.885 69.0474 142.034 68.1434C144.96 66.9133 145.654 64.166 145.654 61.3165V52.8743C145.654 48.1107 146.139 43.0171 144.68 38.4186C143.221 33.8202 141.711 29.2021 140.228 24.5918L135.102 8.67414C134.495 6.7876 133.92 4.98752 132.571 3.43898C130.655 1.21444 127.887 0.121811 124.989 0.0589261C119.075 -0.0707737 113.16 0.0589261 107.246 0.0589261H8.58374C5.82373 0.0589261 3.04006 -0.0511242 1.21057 2.56252C-0.524288 5.03468 0.122339 9.15363 0.122339 11.9952V61.1633C0.122339 62.3934 0.0671384 63.5922 0.516625 64.7791C1.7744 68.2024 4.99573 68.619 8.14214 68.619H15.4049C17.9441 68.619 17.948 64.6887 15.4049 64.6887H8.12241C6.31264 64.6887 4.27418 64.9403 4.06127 62.5506C3.79709 59.6304 4.06127 56.5609 4.06127 53.6328V6.94481C4.06127 5.53384 4.23869 4.1936 6.0327 3.98922C6.37939 3.96957 6.72693 3.96957 7.07362 3.98922H122.138C124.035 3.98922 126.14 3.7652 127.871 4.65344C131.278 6.40243 132.074 12.121 133.135 15.4028L138.746 32.8297C139.929 36.4692 141.675 40.4309 141.715 44.2944C141.766 49.2427 141.715 54.1948 141.715 59.1431C141.715 60.5737 142.251 63.5411 140.737 64.4215C140.043 64.8145 139.057 64.6887 138.288 64.6887H127.737C125.198 64.6887 125.194 68.619 127.737 68.619V68.619Z" fill="#168D63"/>
<path d="M2.08948 13.0721H133.813C136.352 13.0721 136.356 9.14185 133.813 9.14185H2.08948C-0.449729 9.14185 -0.453672 13.0721 2.08948 13.0721Z" fill="#168D63"/>
<path d="M2.08959 38.5759H109.623C110.515 38.5759 111.453 38.6623 112.34 38.5759C112.407 38.5759 112.734 38.623 112.774 38.5759C111.887 39.4248 111.532 37.8763 112.04 38.4973C112.339 38.7707 112.665 39.0118 113.014 39.2165L120.506 44.77C122.477 46.2242 124.421 48.0322 126.55 49.2427C127.993 50.0641 130.32 49.6357 131.912 49.6357H143.666C146.201 49.6357 146.205 45.7054 143.666 45.7054H137.074C134.195 45.7054 131.187 45.45 128.317 45.7054C128.06 45.729 127.185 45.6308 128.234 45.8351C129.093 46.0042 128.577 45.9137 128.265 45.6268C127.404 44.9208 126.508 44.2584 125.58 43.642L117.466 37.6444C116.161 36.6815 114.473 34.8303 112.774 34.6456C112.275 34.62 111.775 34.62 111.275 34.6456H24.7492C17.3406 34.6456 9.87675 34.3783 2.47205 34.6456H2.07776C-0.461448 34.6456 -0.465391 38.5759 2.07776 38.5759H2.08959Z" fill="#168D63"/>
<path d="M114.753 36.6107V11.107C114.753 8.57982 110.811 8.57589 110.811 11.107V36.6107C110.811 39.1379 114.753 39.1457 114.753 36.6107Z" fill="#168D63"/>
<path d="M102.396 11.107V36.6107C102.396 39.1379 106.339 39.1457 106.339 36.6107V11.107C106.339 8.57982 102.396 8.57589 102.396 11.107Z" fill="#168D63"/>
<path d="M86.8301 19.0266V11.107C86.8301 8.57982 82.8872 8.57589 82.8872 11.107V19.0266C82.8872 21.5537 86.8301 21.5577 86.8301 19.0266Z" fill="#168D63"/>
<path d="M86.8301 36.6107V28.923C86.8301 26.3959 82.8872 26.3919 82.8872 28.923V36.6107C82.8872 39.1379 86.8301 39.1457 86.8301 36.6107V36.6107Z" fill="#168D63"/>
<path d="M74.4771 11.107V36.6107C74.4771 39.1379 78.4199 39.1457 78.4199 36.6107V11.107C78.4199 8.57982 74.4771 8.57589 74.4771 11.107Z" fill="#168D63"/>
<path d="M58.9102 36.6107V11.107C58.9102 8.57982 54.9673 8.57589 54.9673 11.107V36.6107C54.9673 39.1379 58.9102 39.1457 58.9102 36.6107Z" fill="#168D63"/>
<path d="M46.5532 11.107V36.6107C46.5532 39.1379 50.4961 39.1457 50.4961 36.6107V11.107C50.4961 8.57982 46.5532 8.57589 46.5532 11.107Z" fill="#168D63"/>
<path d="M30.9868 36.6107V11.107C30.9868 8.57982 27.0439 8.57589 27.0439 11.107V36.6107C27.0439 39.1379 30.9868 39.1457 30.9868 36.6107Z" fill="#168D63"/>
<path d="M18.6338 11.107V36.6107C18.6338 39.1379 22.5767 39.1457 22.5767 36.6107V11.107C22.5767 8.57982 18.6338 8.57589 18.6338 11.107Z" fill="#168D63"/>
<path d="M75.6871 47.195H124.429C126.968 47.195 126.972 43.2647 124.429 43.2647H75.6871C73.1518 43.2647 73.1479 47.195 75.6871 47.195Z" fill="#168D63"/>
<path d="M2.08948 47.195H65.5697C68.1049 47.195 68.1089 43.2647 65.5697 43.2647H2.08948C-0.449729 43.2647 -0.453672 47.195 2.08948 47.195V47.195Z" fill="#168D63"/>
<path d="M135.575 18.5431H145.724L143.824 17.0968L147.096 27.4688C147.853 29.8703 151.662 28.8445 150.897 26.4234L147.625 16.0553C147.503 15.6446 147.253 15.2832 146.911 15.0238C146.57 14.7644 146.154 14.6204 145.724 14.6129H135.575C133.04 14.6129 133.036 18.5431 135.575 18.5431V18.5431Z" fill="#168D63"/>
</g>
<defs>
<clipPath id="clip0_661_23">
<rect width="151" height="83" fill="white"/>
</clipPath>
</defs>
</svg>
