<svg width="151" height="83" viewBox="0 0 151 83" fill="none" xmlns="http://www.w3.org/2000/svg">
<g clip-path="url(#clip0_304_19)">
<path d="M35.2531 66.6539C35.1427 69.5859 32.8874 72.0266 29.8632 72.0266C29.1434 72.046 28.427 71.9215 27.7563 71.6603C27.0855 71.3991 26.4741 71.0066 25.9581 70.5059C25.4421 70.0053 25.0319 69.4067 24.7519 68.7454C24.4718 68.0841 24.3275 67.3736 24.3275 66.6558C24.3275 65.9381 24.4718 65.2275 24.7519 64.5663C25.0319 63.905 25.4421 63.3064 25.9581 62.8057C26.4741 62.3051 27.0855 61.9126 27.7563 61.6514C28.427 61.3902 29.1434 61.2657 29.8632 61.2851C32.8874 61.2851 35.1427 63.7258 35.2531 66.6539C35.3438 69.1771 39.2867 69.1889 39.196 66.6539C39.0067 61.6034 35.0757 57.3548 29.8632 57.3548C28.6217 57.3294 27.3876 57.5511 26.2332 58.0071C25.0788 58.4631 24.0273 59.1442 23.1403 60.0104C22.2533 60.8766 21.5486 61.9105 21.0675 63.0516C20.5864 64.1927 20.3386 65.4181 20.3386 66.6558C20.3386 67.8936 20.5864 69.119 21.0675 70.2601C21.5486 71.4012 22.2533 72.4351 23.1403 73.3013C24.0273 74.1675 25.0788 74.8486 26.2332 75.3046C27.3876 75.7606 28.6217 75.9823 29.8632 75.9569C35.0757 75.9372 39.0067 71.724 39.196 66.6539C39.2867 64.1267 35.3438 64.1306 35.2531 66.6539Z" fill="white"/>
<path d="M42.3504 66.6539C42.2519 71.834 39.0818 76.6172 34.1098 78.3701C31.6115 79.2726 28.8897 79.3578 26.3395 78.6135C23.7893 77.8693 21.5434 76.3341 19.9278 74.2311C18.3123 72.128 17.4112 69.5664 17.3554 66.9182C17.2996 64.27 18.0919 61.673 19.6174 59.5041C21.1428 57.3352 23.322 55.7074 25.8387 54.857C28.3553 54.0066 31.0783 53.9778 33.6124 54.7748C36.1465 55.5718 38.3599 57.1532 39.9312 59.2893C41.5025 61.4254 42.3499 64.0051 42.3504 66.6539C42.3977 69.1811 46.3406 69.189 46.2933 66.6539C46.2941 63.275 45.2466 59.9786 43.2945 57.2162C41.3424 54.4539 38.5812 52.3609 35.3891 51.2239C32.1971 50.087 28.7304 49.9618 25.4642 50.8655C22.198 51.7692 19.292 53.6575 17.1445 56.2718C14.9969 58.886 13.7129 62.0983 13.4684 65.4684C13.2238 68.8385 14.0307 72.2015 15.7785 75.0966C17.5262 77.9917 20.1293 80.2773 23.2311 81.6401C26.3328 83.003 29.7814 83.3764 33.1044 82.7092C40.7851 81.2471 46.1474 74.3101 46.2933 66.6539C46.3406 64.1267 42.3977 64.1267 42.3504 66.6539Z" fill="white"/>
<path d="M118.668 66.6539C118.558 69.5859 116.303 72.0266 113.278 72.0266C112.559 72.046 111.842 71.9215 111.172 71.6603C110.501 71.3991 109.889 71.0066 109.373 70.5059C108.857 70.0053 108.447 69.4067 108.167 68.7454C107.887 68.0841 107.743 67.3736 107.743 66.6558C107.743 65.9381 107.887 65.2275 108.167 64.5663C108.447 63.905 108.857 63.3064 109.373 62.8057C109.889 62.3051 110.501 61.9126 111.172 61.6514C111.842 61.3902 112.559 61.2657 113.278 61.2851C116.303 61.2851 118.558 63.7258 118.668 66.6539C118.759 69.1771 122.702 69.1889 122.611 66.6539C122.426 61.6034 118.491 57.3548 113.278 57.3548C112.037 57.3294 110.803 57.5511 109.649 58.0071C108.494 58.4631 107.443 59.1442 106.556 60.0104C105.669 60.8766 104.964 61.9105 104.483 63.0516C104.002 64.1927 103.754 65.4181 103.754 66.6558C103.754 67.8936 104.002 69.119 104.483 70.2601C104.964 71.4012 105.669 72.4351 106.556 73.3013C107.443 74.1675 108.494 74.8486 109.649 75.3046C110.803 75.7606 112.037 75.9823 113.278 75.9569C118.491 75.9372 122.422 71.724 122.611 66.6539C122.702 64.1267 118.759 64.1306 118.668 66.6539Z" fill="white"/>
<path d="M125.766 66.6539C125.667 71.834 122.497 76.6172 117.525 78.3701C115.027 79.2725 112.305 79.3578 109.755 78.6135C107.204 77.8692 104.959 76.3341 103.343 74.2311C101.728 72.128 100.826 69.5664 100.771 66.9182C100.715 64.27 101.507 61.6729 103.033 59.5041C104.558 57.3352 106.737 55.7074 109.254 54.857C111.77 54.0066 114.493 53.9778 117.028 54.7748C119.562 55.5718 121.775 57.1532 123.346 59.2893C124.918 61.4254 125.765 64.0051 125.766 66.6539C125.813 69.1811 129.756 69.1889 129.709 66.6539C129.709 63.2761 128.661 59.9809 126.709 57.2197C124.757 54.4586 121.997 52.3666 118.805 51.2303C115.614 50.0941 112.149 49.9691 108.884 50.8727C105.619 51.7762 102.714 53.6641 100.567 56.2775C98.4198 58.8909 97.1361 62.1021 96.8915 65.4711C96.6469 68.8401 97.4533 72.202 99.2002 75.0964C100.947 77.9908 103.549 80.2759 106.65 81.6387C109.75 83.0016 113.198 83.3755 116.52 82.7091C124.2 81.2471 129.563 74.3101 129.709 66.6539C129.756 64.1267 125.813 64.1267 125.766 66.6539Z" fill="white"/>
<path d="M44.3219 68.619H98.8202C101.359 68.619 101.363 64.6887 98.8202 64.6887H44.3219C41.7827 64.6887 41.7788 68.619 44.3219 68.619Z" fill="white"/>
<path d="M127.737 68.619H134.712C136.979 68.619 139.885 69.0474 142.034 68.1434C144.96 66.9133 145.654 64.166 145.654 61.3165V52.8743C145.654 48.1107 146.139 43.0171 144.68 38.4186C143.221 33.8202 141.711 29.2021 140.228 24.5918L135.102 8.67414C134.495 6.7876 133.92 4.98752 132.571 3.43898C130.655 1.21444 127.887 0.121811 124.989 0.0589261C119.075 -0.0707737 113.16 0.0589261 107.246 0.0589261H8.58374C5.82373 0.0589261 3.04006 -0.0511242 1.21057 2.56252C-0.524288 5.03468 0.122339 9.15363 0.122339 11.9952V61.1633C0.122339 62.3934 0.0671384 63.5922 0.516625 64.7791C1.7744 68.2024 4.99573 68.619 8.14214 68.619H15.4049C17.9441 68.619 17.948 64.6887 15.4049 64.6887H8.12241C6.31264 64.6887 4.27418 64.9403 4.06127 62.5506C3.79709 59.6304 4.06127 56.5609 4.06127 53.6328V6.94481C4.06127 5.53384 4.23869 4.1936 6.0327 3.98922C6.37939 3.96957 6.72693 3.96957 7.07362 3.98922H122.138C124.035 3.98922 126.14 3.7652 127.871 4.65344C131.278 6.40243 132.074 12.121 133.135 15.4028L138.746 32.8297C139.929 36.4692 141.675 40.4309 141.715 44.2944C141.766 49.2427 141.715 54.1948 141.715 59.1431C141.715 60.5737 142.251 63.5411 140.737 64.4215C140.043 64.8145 139.057 64.6887 138.288 64.6887H127.737C125.198 64.6887 125.194 68.619 127.737 68.619Z" fill="white"/>
<path d="M2.08972 13.0721H133.813C136.352 13.0721 136.356 9.14185 133.813 9.14185H2.08972C-0.449485 9.14185 -0.453428 13.0721 2.08972 13.0721Z" fill="white"/>
<path d="M2.08983 38.5759H109.624C110.515 38.5759 111.453 38.6623 112.34 38.5759C112.407 38.5759 112.735 38.623 112.774 38.5759C111.887 39.4248 111.532 37.8763 112.041 38.4973C112.339 38.7707 112.665 39.0118 113.015 39.2165L120.506 44.77C122.477 46.2242 124.421 48.0322 126.55 49.2427C127.993 50.0641 130.32 49.6357 131.913 49.6357H143.666C146.202 49.6357 146.206 45.7054 143.666 45.7054H137.074C134.196 45.7054 131.187 45.45 128.317 45.7054C128.061 45.729 127.185 45.6308 128.234 45.8351C129.094 46.0042 128.577 45.9137 128.266 45.6268C127.404 44.9208 126.508 44.2584 125.58 43.642L117.466 37.6444C116.161 36.6815 114.473 34.8303 112.774 34.6456C112.275 34.62 111.775 34.62 111.276 34.6456H24.7495C17.3408 34.6456 9.877 34.3783 2.47229 34.6456H2.078C-0.461204 34.6456 -0.465146 38.5759 2.078 38.5759H2.08983Z" fill="white"/>
<path d="M114.753 36.6107V11.107C114.753 8.57982 110.81 8.57589 110.81 11.107V36.6107C110.81 39.1379 114.753 39.1457 114.753 36.6107Z" fill="white"/>
<path d="M102.396 11.107V36.6107C102.396 39.1379 106.339 39.1457 106.339 36.6107V11.107C106.339 8.57982 102.396 8.57589 102.396 11.107Z" fill="white"/>
<path d="M86.8298 19.0266V11.107C86.8298 8.57982 82.887 8.57589 82.887 11.107V19.0266C82.887 21.5537 86.8298 21.5577 86.8298 19.0266Z" fill="white"/>
<path d="M86.8298 36.6107V28.923C86.8298 26.3959 82.887 26.3919 82.887 28.923V36.6107C82.887 39.1379 86.8298 39.1457 86.8298 36.6107Z" fill="white"/>
<path d="M74.4768 11.107V36.6107C74.4768 39.1379 78.4197 39.1457 78.4197 36.6107V11.107C78.4197 8.57982 74.4768 8.57589 74.4768 11.107Z" fill="white"/>
<path d="M58.9104 36.6107V11.107C58.9104 8.57982 54.9675 8.57589 54.9675 11.107V36.6107C54.9675 39.1379 58.9104 39.1457 58.9104 36.6107Z" fill="white"/>
<path d="M46.5535 11.107V36.6107C46.5535 39.1379 50.4963 39.1457 50.4963 36.6107V11.107C50.4963 8.57982 46.5535 8.57589 46.5535 11.107Z" fill="white"/>
<path d="M30.9871 36.6107V11.107C30.9871 8.57982 27.0442 8.57589 27.0442 11.107V36.6107C27.0442 39.1379 30.9871 39.1457 30.9871 36.6107Z" fill="white"/>
<path d="M18.634 11.107V36.6107C18.634 39.1379 22.5769 39.1457 22.5769 36.6107V11.107C22.5769 8.57982 18.634 8.57589 18.634 11.107Z" fill="white"/>
<path d="M75.6874 47.195H124.429C126.968 47.195 126.972 43.2647 124.429 43.2647H75.6874C73.1521 43.2647 73.1481 47.195 75.6874 47.195Z" fill="white"/>
<path d="M2.08972 47.195H65.5699C68.1052 47.195 68.1091 43.2647 65.5699 43.2647H2.08972C-0.449485 43.2647 -0.453428 47.195 2.08972 47.195Z" fill="white"/>
<path d="M135.576 18.5431H145.724L143.824 17.0968L147.097 27.4688C147.854 29.8703 151.662 28.8445 150.898 26.4234L147.625 16.0553C147.503 15.6446 147.253 15.2832 146.912 15.0238C146.57 14.7644 146.154 14.6204 145.724 14.6129H135.576C133.04 14.6129 133.036 18.5431 135.576 18.5431Z" fill="white"/>
</g>
<defs>
<clipPath id="clip0_304_19">
<rect width="151" height="83" fill="white"/>
</clipPath>
</defs>
</svg>
