<svg width="156" height="83" viewBox="0 0 156 83" fill="none" xmlns="http://www.w3.org/2000/svg">
<g clip-path="url(#clip0_810_34)">
<path d="M39.7169 66.6469C39.6104 69.5802 37.3504 72.0219 34.3293 72.0219C32.8993 72.0219 31.528 71.4556 30.5169 70.4476C29.5058 69.4396 28.9377 68.0725 28.9377 66.6469C28.9377 65.2214 29.5058 63.8542 30.5169 62.8462C31.528 61.8382 32.8993 61.2719 34.3293 61.2719C37.3544 61.2719 39.6104 63.7137 39.7169 66.6469C39.8115 69.1673 43.7556 69.1831 43.661 66.6469C43.4756 61.5944 39.5433 57.34 34.3293 57.34C31.8533 57.34 29.4788 58.3205 27.728 60.0659C25.9772 61.8113 24.9937 64.1786 24.9937 66.6469C24.9937 69.1153 25.9772 71.4826 27.728 73.2279C29.4788 74.9733 31.8533 75.9539 34.3293 75.9539C39.5433 75.9539 43.4756 71.7152 43.661 66.6469C43.7556 64.1147 39.8115 64.1187 39.7169 66.6469Z" fill="white"/>
<path d="M46.816 66.6469C46.7213 71.8253 43.5503 76.6106 38.5729 78.3642C36.0736 79.2671 33.3508 79.3523 30.7997 78.6076C28.2485 77.8628 26.0019 76.3269 24.3859 74.2226C22.77 72.1184 21.8688 69.5555 21.8133 66.906C21.7578 64.2564 22.5507 61.6582 24.0771 59.4885C25.6035 57.3188 27.7838 55.6906 30.3015 54.8403C32.8192 53.9899 35.5432 53.9617 38.0781 54.7597C40.613 55.5577 42.8268 57.1404 44.398 59.278C45.9693 61.4156 46.8163 63.9968 46.816 66.6469C46.8673 69.1752 50.8113 69.1831 50.7601 66.6469C50.7608 63.2674 49.7133 59.9703 47.761 57.2074C45.8087 54.4446 43.0472 52.3512 39.8549 51.2141C36.6626 50.077 33.1957 49.9518 29.9293 50.8557C26.6628 51.7597 23.7567 53.6484 21.609 56.2633C19.4614 58.8781 18.1774 62.091 17.9329 65.4618C17.6885 68.8326 18.4955 72.1962 20.2435 75.0918C21.9915 77.9874 24.5949 80.2733 27.697 81.6363C30.799 82.9993 34.2479 83.3726 37.5711 82.7051C45.2541 81.2463 50.6181 74.3025 50.7601 66.6469C50.8113 64.1147 46.8673 64.1147 46.816 66.6469Z" fill="white"/>
<path d="M122.775 66.6469C122.665 69.5802 120.409 72.0219 117.383 72.0219C115.954 72.0219 114.582 71.4556 113.571 70.4476C112.56 69.4396 111.992 68.0725 111.992 66.6469C111.992 65.2214 112.56 63.8542 113.571 62.8462C114.582 61.8382 115.954 61.2719 117.383 61.2719C120.409 61.2719 122.665 63.7137 122.775 66.6469C122.866 69.1673 126.81 69.1831 126.719 66.6469C126.53 61.5944 122.598 57.34 117.383 57.34C114.908 57.34 112.533 58.3205 110.782 60.0659C109.031 61.8113 108.048 64.1786 108.048 66.6469C108.048 69.1153 109.031 71.4826 110.782 73.2279C112.533 74.9733 114.908 75.9539 117.383 75.9539C122.598 75.9539 126.53 71.7152 126.719 66.6469C126.81 64.1147 122.866 64.1187 122.775 66.6469Z" fill="white"/>
<path d="M129.875 66.6469C129.776 71.8253 126.605 76.6105 121.631 78.3642C119.132 79.2671 116.409 79.3523 113.858 78.6076C111.307 77.8628 109.06 76.3268 107.445 74.2226C105.829 72.1184 104.927 69.5555 104.872 66.906C104.816 64.2564 105.609 61.6582 107.136 59.4885C108.662 57.3188 110.842 55.6906 113.36 54.8403C115.878 53.9899 118.602 53.9617 121.137 54.7597C123.672 55.5577 125.885 57.1404 127.457 59.278C129.028 61.4156 129.875 63.9968 129.875 66.6469C129.922 69.1752 133.866 69.1831 133.819 66.6469C133.82 63.2675 132.772 59.9705 130.82 57.2076C128.868 54.4447 126.107 52.3512 122.915 51.2138C119.723 50.0765 116.256 49.9509 112.99 50.8544C109.723 51.7579 106.817 53.6462 104.669 56.2606C102.521 58.875 101.237 62.0876 100.992 65.4582C100.747 68.8288 101.553 72.1924 103.3 75.0883C105.048 77.9841 107.651 80.2705 110.752 81.6341C113.854 82.9976 117.303 83.3717 120.626 82.7051C128.309 81.2463 133.673 74.3025 133.819 66.6469C133.866 64.1147 129.922 64.1147 129.875 66.6469Z" fill="white"/>
<path d="M48.863 68.6129H102.313C104.849 68.6129 104.853 64.681 102.313 64.681H48.863C46.323 64.681 46.3191 68.6129 48.863 68.6129Z" fill="white"/>
<path d="M131.847 68.613H139.155C142.18 68.613 145.359 68.8292 147.244 65.8999C148.427 64.0676 148.191 61.8971 148.191 59.825V42.6187C148.207 41.7233 148.085 40.8306 147.828 39.9725L143.123 24.2092C141.837 19.884 140.614 15.5589 139.257 11.2573C138.261 8.00322 136.242 5.15454 133.498 3.13126C130.754 1.10798 127.43 0.0171839 124.018 0.0197113C117.786 -0.0235404 111.554 0.0197113 105.319 0.0197113H7.24142C3.49061 0.0197113 0.205192 1.84415 0.0553171 6.04743C-0.0630051 9.27951 0.0553171 12.5352 0.0553171 15.7712V53.0188C0.0553171 56.2036 -0.0669492 59.42 0.0553171 62.6049C0.0634169 64.1863 0.693412 65.7016 1.80995 66.825C2.92648 67.9484 4.44047 68.5903 6.02665 68.613C8.51141 68.7113 11.0199 68.613 13.5204 68.613H19.8782C22.4182 68.613 22.4222 64.681 19.8782 64.681C15.3623 64.681 10.6491 65.0978 6.1568 64.681C3.09226 64.394 4.01122 59.8171 4.01122 57.6349V8.87846C4.01122 6.91247 3.49455 4.07751 6.27118 3.95562C12.1636 3.70004 18.1271 3.95562 24.0195 3.95562H120.929C122.748 3.95562 124.7 3.81406 126.487 4.16794C128.569 4.59045 130.5 5.56453 132.074 6.98775C133.649 8.41098 134.81 10.2308 135.436 12.256C135.83 13.4592 136.161 14.6781 136.52 15.8891L141.569 32.7966L143.647 39.7523C143.799 40.3799 143.984 40.9993 144.199 41.6082C144.527 42.3946 144.33 41.1009 144.243 41.793C143.998 43.759 144.243 45.9255 144.243 47.9151V57.3125C144.243 59.0504 144.42 60.8906 144.243 62.6206C143.967 65.373 140.579 64.6692 138.599 64.6692H131.847C129.307 64.6692 129.303 68.6012 131.847 68.6012V68.613Z" fill="white"/>
<path d="M57.7293 13.64H16.1429C15.6221 13.6471 15.1247 13.8566 14.7564 14.2237C14.3881 14.5909 14.178 15.0868 14.1709 15.606V41.4823C14.178 42.0015 14.3881 42.4974 14.7564 42.8646C15.1247 43.2318 15.6221 43.4412 16.1429 43.4483H146.219C148.759 43.4483 148.762 39.5163 146.219 39.5163H16.1429L18.115 41.4823V15.606L16.1429 17.572H57.7293C60.2693 17.572 60.2732 13.64 57.7293 13.64Z" fill="white"/>
<path d="M138.5 13.64H94.6145C92.0745 13.64 92.0705 17.572 94.6145 17.572H138.5C141.036 17.572 141.04 13.64 138.5 13.64Z" fill="white"/>
<path d="M96.5864 66.6469V10.9151C96.5792 10.3959 96.3692 9.90002 96.0009 9.53286C95.6326 9.1657 95.1351 8.95628 94.6143 8.94916H57.7294C57.2086 8.95628 56.7111 9.1657 56.3428 9.53286C55.9745 9.90002 55.7645 10.3959 55.7573 10.9151V66.6469C55.7573 69.1752 59.7014 69.1791 59.7014 66.6469V10.9151L57.7294 12.8811H94.6143L92.6423 10.9151V66.6469C92.6423 69.1752 96.5864 69.1791 96.5864 66.6469Z" fill="white"/>
<path d="M34.9482 15.606V41.4823C34.9482 44.0105 38.8923 44.0145 38.8923 41.4823V15.606C38.8923 13.0777 34.9482 13.0738 34.9482 15.606Z" fill="white"/>
<path d="M74.1997 30.8896V41.4823C74.1997 44.0106 78.1438 44.0145 78.1438 41.4823V30.8896C78.1438 28.3574 74.1997 28.3534 74.1997 30.8896Z" fill="white"/>
<path d="M74.1997 10.9152V20.9024C74.1997 23.4306 78.1438 23.4346 78.1438 20.9024V10.9152C78.1438 8.38693 74.1997 8.383 74.1997 10.9152Z" fill="white"/>
<path d="M113.436 15.606V41.4823C113.436 44.0105 117.38 44.0145 117.38 41.4823V15.606C117.38 13.0777 113.436 13.0738 113.436 15.606Z" fill="white"/>
<path d="M142.373 28.3653H151.165L149.264 26.9222L152.088 35.9028C152.849 38.3092 156.655 37.283 155.894 34.8569L153.058 25.8763C152.936 25.4654 152.686 25.1039 152.344 24.8444C152.002 24.5849 151.586 24.4409 151.157 24.4333H142.373C139.837 24.4333 139.833 28.3653 142.373 28.3653V28.3653Z" fill="white"/>
</g>
<defs>
<clipPath id="clip0_810_34">
<rect width="156" height="83" fill="white"/>
</clipPath>
</defs>
</svg>
