<svg width="213" height="83" viewBox="0 0 213 83" fill="none" xmlns="http://www.w3.org/2000/svg">
<g clip-path="url(#clip0_661_40)">
<path d="M55.9093 67.2892C55.804 70.1072 53.6527 72.4531 50.7679 72.4531C50.0927 72.4531 49.4241 72.3195 48.8003 72.06C48.1766 71.8005 47.6098 71.4201 47.1323 70.9406C46.6549 70.4611 46.2762 69.8918 46.0178 69.2653C45.7594 68.6388 45.6264 67.9673 45.6264 67.2892C45.6264 66.6111 45.7594 65.9396 46.0178 65.3131C46.2762 64.6866 46.6549 64.1173 47.1323 63.6378C47.6098 63.1583 48.1766 62.7779 48.8003 62.5184C49.4241 62.2589 50.0927 62.1253 50.7679 62.1253C53.6527 62.1253 55.804 64.4712 55.9093 67.2892C55.9959 69.7144 59.757 69.7257 59.6705 67.2892C59.4937 62.4351 55.7401 58.3478 50.7679 58.3478C48.4053 58.3498 46.1402 59.2943 44.471 60.9737C42.8018 62.653 41.8652 64.9295 41.8672 67.3024C41.8692 69.6753 42.8096 71.9503 44.4817 73.6268C46.1537 75.3032 48.4203 76.244 50.7829 76.242C55.7551 76.2231 59.505 72.1698 59.6855 67.3005C59.757 64.8565 55.9959 64.8602 55.9093 67.2892Z" fill="white"/>
<path d="M62.6793 67.2892C62.5853 72.2642 59.5613 76.8615 54.8186 78.5463C52.4353 79.4137 49.8387 79.4956 47.4059 78.7801C44.9731 78.0646 42.8307 76.5889 41.2897 74.5674C39.7487 72.5458 38.8893 70.0835 38.8364 67.5381C38.7834 64.9926 39.5396 62.4964 40.9952 60.412C42.4508 58.3275 44.5299 56.7633 46.9309 55.9463C49.3318 55.1294 51.9294 55.1023 54.3467 55.8689C56.764 56.6356 58.8751 58.1561 60.3735 60.2097C61.8719 62.2634 62.6796 64.7432 62.6793 67.2892C62.7244 69.7182 66.4856 69.7257 66.4404 67.2892C66.4413 64.0425 65.4426 60.875 63.5811 58.2207C61.7197 55.5663 59.0866 53.555 56.0426 52.4623C52.9986 51.3696 49.6926 51.249 46.5777 52.117C43.4628 52.985 40.6914 54.7992 38.6431 57.3109C36.5948 59.8226 35.3699 62.909 35.1362 66.1472C34.9026 69.3854 35.6716 72.6169 37.3379 75.399C39.0042 78.1811 41.4862 80.3777 44.444 81.6877C47.4017 82.9977 50.6904 83.3571 53.8595 82.7167C61.1861 81.3152 66.3013 74.6441 66.4404 67.2892C66.4856 64.8565 62.7244 64.8565 62.6793 67.2892Z" fill="white"/>
<path d="M167.543 67.2892C167.438 70.1072 165.286 72.4531 162.402 72.4531C161.726 72.4531 161.058 72.3195 160.434 72.06C159.81 71.8005 159.243 71.4201 158.766 70.9406C158.289 70.4611 157.91 69.8918 157.652 69.2653C157.393 68.6388 157.26 67.9673 157.26 67.2892C157.26 66.6111 157.393 65.9396 157.652 65.3131C157.91 64.6866 158.289 64.1173 158.766 63.6378C159.243 63.1583 159.81 62.7779 160.434 62.5184C161.058 62.2589 161.726 62.1253 162.402 62.1253C165.286 62.1253 167.438 64.4712 167.543 67.2892C167.63 69.7144 171.394 69.7257 171.304 67.2892C171.127 62.4351 167.374 58.3478 162.402 58.3478C161.233 58.3478 160.075 58.579 158.995 59.0284C157.915 59.4777 156.933 60.1364 156.107 60.9667C155.28 61.7969 154.624 62.7826 154.177 63.8675C153.729 64.9523 153.499 66.115 153.499 67.2892C153.499 68.4634 153.729 69.6261 154.177 70.7109C154.624 71.7958 155.28 72.7815 156.107 73.6118C156.933 74.442 157.915 75.1007 158.995 75.55C160.075 75.9994 161.233 76.2306 162.402 76.2306C167.374 76.2117 171.124 72.1584 171.304 67.2892C171.391 64.8565 167.63 64.8602 167.543 67.2892Z" fill="white"/>
<path d="M174.313 67.2893C174.219 72.2643 171.195 76.8615 166.452 78.5463C164.069 79.4137 161.473 79.4956 159.04 78.7801C156.607 78.0646 154.464 76.589 152.923 74.5674C151.382 72.5458 150.523 70.0836 150.47 67.5381C150.417 64.9926 151.173 62.4965 152.629 60.412C154.085 58.3276 156.164 56.7633 158.565 55.9463C160.966 55.1294 163.563 55.1023 165.981 55.8689C168.398 56.6356 170.509 58.1561 172.007 60.2098C173.506 62.2634 174.313 64.7432 174.313 67.2893C174.358 69.7182 178.119 69.7258 178.074 67.2893C178.075 64.0424 177.076 60.8748 175.214 58.2205C173.353 55.5662 170.719 53.555 167.675 52.4626C164.631 51.3701 161.325 51.2499 158.21 52.1183C155.095 52.9867 152.323 54.8013 150.275 57.3135C148.227 59.8256 147.003 62.9123 146.77 66.1507C146.537 69.389 147.306 72.6206 148.973 75.4024C150.64 78.1843 153.123 80.3805 156.081 81.6899C159.039 82.9993 162.328 83.358 165.497 82.7167C172.824 81.3152 177.939 74.6441 178.078 67.2893C178.119 64.8565 174.358 64.8565 174.313 67.2893Z" fill="white"/>
<path d="M64.5597 69.178H148.015C150.434 69.178 150.438 65.4005 148.015 65.4005H64.5597C62.1376 65.4005 62.1338 69.178 64.5597 69.178Z" fill="white"/>
<path d="M176.656 69.178H197.151C199.546 69.178 202.063 69.4046 204.451 69.1364C209.465 68.5774 208.927 63.3908 208.927 59.6926C208.927 56.2437 208.998 52.7835 208.927 49.3384C208.863 46.4335 207.904 44.0498 206.824 41.4433L197.696 19.5336C195.439 14.1431 193.288 8.71099 190.956 3.35822C189.369 -0.294655 186.168 0.0264387 182.964 0.0264387H11.1743C9.16588 0.0264387 7.13112 -0.0642221 5.12644 0.0264387C-1.17721 0.317309 0.105335 7.84971 0.105335 12.1712V60.0401C0.105335 61.4151 0.0376347 62.8053 0.105335 64.1765C0.135964 65.494 0.670956 66.7489 1.59909 67.6804C2.52722 68.6118 3.77708 69.1482 5.08882 69.178C5.71693 69.2082 6.35257 69.178 6.96939 69.178H36.9644C39.3865 69.178 39.3903 65.4004 36.9644 65.4004H7.4809C6.03663 65.4004 3.97553 65.8349 3.86646 63.8668C3.57309 58.5971 3.86646 53.2217 3.86646 47.9445V22.1326C3.86646 16.6249 3.66712 11.0719 3.86646 5.5643C3.9492 3.29778 6.27734 3.81908 7.96232 3.81908H185.273C186.003 3.81908 186.777 3.6982 187.323 4.35927C187.568 4.79162 187.759 5.25202 187.894 5.73051L189.248 8.98297L198.651 31.5084L202.77 41.3867C203.499 43.1432 204.406 44.9375 204.872 46.7885C205.7 50.0674 205.184 53.9659 205.184 57.3241V63.0471C205.184 64.1614 205.278 65.1851 203.86 65.4004C201.359 65.7782 198.508 65.4004 195.985 65.4004H176.656C174.234 65.4004 174.23 69.178 176.656 69.178V69.178Z" fill="white"/>
<path d="M2.08756 18.374H25.5344C26.8583 18.374 27.8475 18.5515 27.9077 20.1003C28.0845 24.6333 27.9077 29.1928 27.9077 33.7221V67.2892C27.9077 69.7182 31.6688 69.7258 31.6688 67.2892V34.5985C31.6688 29.767 31.7365 24.928 31.6688 20.1003C31.6312 17.1009 29.7882 14.7475 26.6627 14.5964C24.6656 14.502 22.6421 14.5964 20.645 14.5964H2.08756C-0.334599 14.5964 -0.33836 18.374 2.08756 18.374Z" fill="white"/>
<path d="M193.626 14.5964H172.47C171.973 14.6032 171.499 14.8044 171.148 15.1571C170.796 15.5099 170.596 15.9863 170.589 16.4851V43.2717C170.589 45.4664 171.097 47.5592 173.196 48.7226C174.535 49.4781 176.069 49.327 177.536 49.327H206.23C208.648 49.327 208.652 45.5495 206.23 45.5495H180.165C178.74 45.5495 177.288 45.6326 175.87 45.5495C174.452 45.4664 174.366 44.5522 174.366 43.4228V16.4851L172.485 18.3739H193.641C196.063 18.3739 196.067 14.5964 193.641 14.5964H193.626Z" fill="white"/>
<path d="M152.607 14.5964H59.9221C58.0941 14.5964 55.7096 14.2866 54.0509 15.2008C51.625 16.5456 51.4482 18.9179 51.4482 21.3431V44.1329C51.4535 44.5454 51.5905 44.9453 51.839 45.2737C52.0874 45.6022 52.4343 45.8418 52.8286 45.9575C56.1376 46.8289 59.1905 48.4844 61.7312 50.7852C62.9155 51.8614 63.973 53.0706 64.883 54.3889C65.6352 55.5033 66.0564 56.8028 67.5496 56.9803C68.6119 57.0407 69.6768 57.0407 70.7391 56.9803H136.657C138.206 56.9803 139.853 57.139 141.399 56.9803C141.737 56.9681 142.068 56.8771 142.365 56.7145C142.662 56.5519 142.917 56.3222 143.111 56.0435C144.288 54.5551 145.142 52.9346 146.496 51.5558C149.181 48.8618 152.529 46.9302 156.199 45.9575C156.597 45.8452 156.948 45.607 157.2 45.2783C157.452 44.9495 157.592 44.5478 157.598 44.1329V20.7764C157.598 17.5391 156.192 14.8872 152.622 14.5964C150.208 14.3999 150.223 18.1813 152.622 18.3739C154.371 18.5175 153.837 21.4375 153.837 22.6236V44.1556L155.218 42.3348C148.754 44.0956 143.243 48.3456 139.88 54.1623L141.505 53.2255H67.5421L69.1669 54.1623C65.8029 48.3464 60.292 44.0968 53.829 42.3348L55.2094 44.1556V24.0213C55.2094 22.635 54.9912 21.0484 55.2094 19.6734C55.499 17.8488 58.0979 18.3852 59.4782 18.3852H152.607C155.026 18.3739 155.03 14.5964 152.607 14.5964Z" fill="white"/>
<path d="M83.7188 16.4852V67.2892C83.7188 69.7182 87.4799 69.7258 87.4799 67.2892V16.4852C87.4799 14.0562 83.7188 14.0524 83.7188 16.4852Z" fill="white"/>
<path d="M121.552 16.4852V67.2892C121.552 69.7182 125.313 69.7258 125.313 67.2892V16.4852C125.313 14.0562 121.552 14.0524 121.552 16.4852Z" fill="white"/>
<path d="M102.634 43.6607V67.2892C102.634 69.7182 106.395 69.7257 106.395 67.2892V43.6607C106.395 41.228 102.634 41.2242 102.634 43.6607Z" fill="white"/>
<path d="M102.634 16.4852V32.2375C102.634 34.6702 106.395 34.674 106.395 32.2375V16.4852C106.395 14.0562 102.634 14.0524 102.634 16.4852Z" fill="white"/>
<path d="M14.0552 16.4852V67.2892C14.0552 69.7182 17.8163 69.7258 17.8163 67.2892V16.4852C17.8163 14.0562 14.0552 14.0524 14.0552 16.4852Z" fill="white"/>
<path d="M198.286 26.2501H207.968L206.155 24.8675L209.276 34.8326C209.999 37.1445 213.632 36.1586 212.902 33.8316L209.78 23.8627C209.664 23.4679 209.426 23.1206 209.1 22.8713C208.774 22.622 208.377 22.4836 207.968 22.4763H198.286C195.868 22.4763 195.864 26.2539 198.286 26.2539V26.2501Z" fill="white"/>
</g>
<defs>
<clipPath id="clip0_661_40">
<rect width="213" height="83" fill="white"/>
</clipPath>
</defs>
</svg>
